<svg width="1360" height="227" viewBox="0 0 1360 227" fill="none" xmlns="http://www.w3.org/2000/svg">
<path d="M1306 76.1576C1291.56 76.1576 1279.46 82.9807 1269.69 96.6268C1260.14 110.273 1255.36 129.137 1255.36 153.218C1255.36 177.3 1259.73 195.16 1268.47 206.799C1277.42 218.439 1289.12 224.259 1303.56 224.259C1321.66 224.259 1337.73 221.248 1351.76 215.228L1352.68 217.335C1338.24 223.556 1321.36 226.667 1302.03 226.667C1282.71 226.667 1266.64 220.646 1253.83 208.606C1241.02 196.565 1234.61 178.002 1234.61 152.917C1234.61 127.832 1241.32 108.367 1254.75 94.5197C1268.17 80.6729 1285.25 73.7494 1306 73.7494C1317.59 73.7494 1328.27 76.3583 1338.03 81.5759C1348 86.7936 1355.32 94.7204 1360 105.356H1340.47C1337.42 95.5231 1332.75 88.1983 1326.44 83.382C1320.34 78.5657 1313.53 76.1576 1306 76.1576Z" fill="black"/>
<path d="M1200.64 225.463C1192.3 225.463 1185.89 223.657 1181.41 220.044C1177.14 216.432 1174.91 212.82 1174.7 209.208L1174.4 204.09V74.9535H1195.75V204.09C1195.75 209.91 1196.87 214.425 1199.11 217.636C1201.55 220.646 1203.89 222.252 1206.13 222.452L1209.79 223.054H1219.25V225.463H1200.64Z" fill="black"/>
<path d="M1129.44 225.463C1121.1 225.463 1114.69 223.657 1110.22 220.044C1105.95 216.432 1103.71 212.82 1103.51 209.208L1103.2 204.09V109.571C1103.2 93.717 1099.03 83.5827 1090.69 79.1678C1086.42 77.161 1081.13 76.1576 1074.83 76.1576C1061.81 76.1576 1050.12 81.2749 1039.74 91.5095C1029.37 101.543 1024.18 110.574 1024.18 118.601V225.463H1002.83V74.9535H1024.18V109.27C1027.64 100.64 1034.05 92.6132 1043.4 85.1881C1052.76 77.5623 1063.03 73.7494 1074.22 73.7494C1085.4 73.7494 1094.45 74.8532 1101.37 77.0606C1108.49 79.0674 1113.68 81.9773 1116.93 85.7902C1122.01 92.0112 1124.56 100.038 1124.56 109.872V204.09C1124.56 209.91 1125.68 214.425 1127.91 217.636C1130.35 220.646 1132.79 222.252 1135.23 222.452L1138.59 223.054H1148.05V225.463H1129.44Z" fill="black"/>
<path d="M959.617 225.463C951.278 225.463 944.871 223.657 940.396 220.044C936.125 216.432 933.888 212.82 933.684 209.208L933.379 204.09V74.9535H954.735V204.09C954.735 209.91 955.854 214.425 958.091 217.636C960.532 220.646 962.871 222.252 965.108 222.452L968.769 223.054H978.227V225.463H959.617Z" fill="black"/>
<path d="M895.894 225.463C877.996 225.463 866.708 220.847 862.03 211.616C861.013 209.609 860.504 207.803 860.504 206.197V0H881.86V204.09C881.86 209.91 882.979 214.425 885.216 217.636C887.657 220.646 890.098 222.252 892.538 222.452L895.894 223.054H905.352V225.463H895.894Z" fill="black"/>
<path d="M772.277 226.667C734.243 226.667 706.073 216.031 687.768 194.759C681.259 187.133 675.971 176.999 671.903 164.356C667.835 151.713 665.802 136.361 665.802 118.3C665.802 100.239 668.751 84.0844 674.649 69.8362C680.751 55.3873 688.988 44.2497 699.361 36.4232C719.497 21.7736 743.802 14.4489 772.277 14.4489C780.412 14.4489 788.345 15.1512 796.074 16.556C803.802 17.7601 809.599 19.0645 813.463 20.4692L818.955 22.5764L818.04 25.5865C804.209 20.1682 788.955 17.459 772.277 17.459C750.717 17.459 732.717 24.3825 718.276 38.2293C707.293 48.4639 699.564 63.5148 695.09 83.382C692.446 94.62 691.124 108.367 691.124 124.621C691.124 140.876 693.463 155.927 698.141 169.774C702.819 183.42 708.107 193.555 714.005 200.177C720.107 206.799 727.429 212.117 735.971 216.131C744.514 219.944 751.327 222.151 756.412 222.753C761.497 223.355 767.599 223.656 774.718 223.656C782.04 223.656 790.277 222.954 799.43 221.549C808.582 220.145 815.497 218.84 820.175 217.636L827.193 215.529L828.108 218.539C812.65 223.957 794.04 226.667 772.277 226.667Z" fill="black"/>
<path d="M595.56 173.687V128.836C594.136 129.237 589.967 130.441 583.052 132.448C576.136 134.254 570.645 135.759 566.577 136.963C562.712 138.167 557.933 139.873 552.238 142.081C546.746 144.087 542.17 146.094 538.509 148.101C531.594 152.516 526.814 158.235 524.17 165.259C521.729 172.283 521.322 179.407 522.949 186.631C524.78 194.257 528.644 200.578 534.543 205.595C540.644 210.412 547.967 212.519 556.509 211.917C567.289 211.315 576.441 207.502 583.967 200.478C591.696 193.254 595.56 184.323 595.56 173.687ZM499.153 195.06C495.288 184.022 496.204 173.286 501.898 162.851C507.593 152.215 518.271 144.589 533.933 139.973C536.577 139.171 541.255 137.967 547.967 136.361C554.678 134.555 562.916 132.448 572.679 130.04C582.645 127.632 590.17 125.725 595.255 124.32C601.153 122.916 605.628 120.307 608.679 116.494C611.933 112.48 613.458 108.166 613.255 103.55C612.645 95.1217 607.662 88.4993 598.306 83.683C588.136 78.4654 574.306 75.6559 556.814 75.2545C536.882 75.2545 518.983 78.3651 503.119 84.5861C479.322 93.2153 467.424 106.36 467.424 124.019V199.876C467.424 206.699 469.153 212.117 472.61 216.131C476.068 220.145 480.746 222.151 486.644 222.151V225.463H477.492C454.102 225.463 442.407 214.425 442.407 192.351V96.3258C442.407 89.7034 440.576 84.3854 436.915 80.3718C433.457 76.1576 428.881 74.0505 423.186 74.0505V71.0403H432.034C455.627 71.0403 467.424 82.0776 467.424 104.152C474.746 93.717 485.932 85.5895 500.983 79.7698C517.458 73.5487 536.068 70.6389 556.814 71.0403C575.119 71.0403 589.763 73.8498 600.747 79.4688C611.12 84.6864 617.221 92.3122 619.052 102.346C620.069 106.36 620.577 112.882 620.577 121.912V199.876C620.577 206.699 622.306 212.117 625.764 216.131C629.221 220.145 633.899 222.151 639.798 222.151V225.463H630.645C607.255 225.463 595.56 214.425 595.56 192.351C592.509 200.578 586.102 208.204 576.34 215.228C566.78 222.051 556.509 225.463 545.526 225.463C534.543 225.463 524.78 222.553 516.238 216.733C507.899 210.913 502.204 203.689 499.153 195.06Z" fill="black"/>
<path d="M374.525 121.611C364.355 104.353 351.135 92.2119 334.864 85.1881C318.796 77.9637 304.355 78.064 291.541 85.4891C278.728 92.7136 271.406 105.055 269.575 122.514C267.948 139.773 272.117 157.131 282.084 174.59C292.253 191.849 305.372 204.09 321.44 211.315C337.711 218.338 352.253 218.238 365.067 211.014C377.677 203.589 384.898 191.247 386.728 173.988C388.559 156.73 384.491 139.271 374.525 121.611ZM250.049 148.101C250.049 126.829 257.677 108.668 272.931 93.6166C288.185 78.5657 306.694 71.0403 328.457 71.0403C350.016 71.0403 368.423 78.5657 383.677 93.6166C398.932 108.668 406.559 126.829 406.559 148.101C406.559 169.373 398.932 187.635 383.677 202.886C368.423 217.937 350.016 225.463 328.457 225.463C306.694 225.463 288.185 217.937 272.931 202.886C257.677 187.835 250.049 169.574 250.049 148.101Z" fill="black"/>
<path d="M189.173 192.351V96.3258C189.173 89.7034 187.444 84.3854 183.986 80.3718C180.529 76.1576 175.851 74.0505 169.952 74.0505V71.0403H178.8C202.597 71.0403 214.495 82.0776 214.495 104.152V199.876C214.495 206.699 216.224 212.117 219.681 216.131C223.139 220.145 227.817 222.151 233.715 222.151V225.463H224.563C200.969 225.463 189.173 214.425 189.173 192.351Z" fill="black"/>
<path d="M50.3393 41.8415V220.646H81.4581C100.984 220.646 117.865 215.629 132.103 205.595C146.34 195.561 154.781 184.925 157.425 173.687H160.781L148.272 225.463H0V222.151C6.50852 222.151 12.0001 219.743 16.4747 214.927C20.9493 209.91 23.1866 204.391 23.1866 198.371V41.8415C23.1866 35.8212 20.9493 30.4028 16.4747 25.5865C12.0001 20.5696 6.50852 18.0611 0 18.0611V14.7499H73.2208V18.0611C66.9157 18.0611 61.5258 20.5696 57.0512 25.5865C52.5766 30.4028 50.3393 35.8212 50.3393 41.8415Z" fill="black"/>
<path d="M200.948 12.6421L218.62 30.0787L200.948 47.5152L183.275 30.0787L200.948 12.6421Z" fill="black"/>
<path d="M944.47 16.7519L959.197 31.2824L944.47 45.8129L929.743 31.2824L944.47 16.7519Z" fill="black"/>
<path d="M1185.2 16.7519L1199.93 31.2824L1185.2 45.8129L1170.47 31.2824L1185.2 16.7519Z" fill="black"/>
</svg>
