<svg width="33" height="31" viewBox="0 0 33 31" fill="none" xmlns="http://www.w3.org/2000/svg">
<path d="M16.2383 0C25.2159 0 32.5 5.78764 32.5 12.8398C32.4999 19.892 25.2393 25.6914 16.2617 25.6914C15.28 25.6866 14.2996 25.6167 13.3271 25.4824L6.73926 29.9248C6.66114 29.9919 6.56356 30.0327 6.46094 30.041C6.33704 30.0407 6.21694 29.995 6.12402 29.9131C6.06048 29.849 6.01557 29.7686 5.99512 29.6807C5.97466 29.5927 5.97905 29.5006 6.00781 29.415L7.53906 23.6963C3.01564 21.4113 3.65444e-05 17.4097 0 12.8398C0 5.79933 7.2492 0.000152586 16.2383 0ZM11.6641 9.18457C11.4616 9.17554 11.2603 9.22332 11.084 9.32324C10.9184 9.43108 10.7991 9.59722 10.748 9.78809L8.28906 16.457C8.24267 16.5846 8.16115 16.724 8.16113 16.8516C8.14123 16.9666 8.14126 17.0842 8.16113 17.1992C8.15499 17.2647 8.155 17.331 8.16113 17.3965C8.19511 17.5888 8.29831 17.7622 8.45117 17.8838C8.60802 18.0015 8.80003 18.0627 8.99609 18.0576C9.17708 18.0804 9.36029 18.0396 9.51465 17.9424C9.669 17.8451 9.78514 17.6975 9.84277 17.5244L10.3301 16.0977H13.3809L13.8682 17.5244C13.9272 17.6939 14.0412 17.8388 14.1924 17.9355C14.3439 18.0323 14.5242 18.0754 14.7031 18.0576C14.8194 18.0604 14.9353 18.039 15.043 17.9951C15.1505 17.9512 15.248 17.8859 15.3291 17.8027C15.413 17.7268 15.4794 17.6334 15.5234 17.5293C15.5675 17.4251 15.5879 17.3123 15.584 17.1992C15.5879 17.126 15.5879 17.0527 15.584 16.9795C15.5437 16.8028 15.4937 16.628 15.4336 16.457L13.1143 9.90332C13.0588 9.67118 12.9178 9.46815 12.7197 9.33496C12.5328 9.22868 12.3194 9.17687 12.1045 9.18457H11.6641ZM3.93555 9.33496C3.68589 9.3316 3.44147 9.40922 3.23926 9.55566C3.14794 9.62637 3.07477 9.71838 3.02637 9.82324C2.97809 9.92803 2.95549 10.043 2.96094 10.1582C2.95531 10.2199 2.95532 10.2821 2.96094 10.3438C2.97937 10.4411 3.01839 10.5334 3.07422 10.6152C3.13011 10.6971 3.20215 10.7667 3.28613 10.8193C3.47522 10.9317 3.69223 10.9888 3.91211 10.9824H5.68652L5.69824 17.083C5.6868 17.1676 5.68683 17.2533 5.69824 17.3379C5.73637 17.5439 5.84788 17.7298 6.01172 17.8604C6.18381 17.994 6.39742 18.0638 6.61523 18.0576C6.73965 18.0625 6.86375 18.041 6.97949 17.9951C7.09534 17.9492 7.20079 17.88 7.28809 17.791C7.3791 17.698 7.4492 17.5866 7.49512 17.4648C7.52953 17.3736 7.5498 17.2777 7.55469 17.1807V10.9824H9.36328C9.57629 10.9737 9.78265 10.9012 9.95508 10.7734C10.0467 10.7003 10.1206 10.6059 10.1689 10.499C10.2172 10.3923 10.2389 10.2752 10.2334 10.1582C10.239 10.1004 10.2391 10.0421 10.2334 9.98438C10.2178 9.88607 10.1811 9.79216 10.125 9.70996C10.0689 9.6278 9.99506 9.55905 9.90918 9.50879C9.72325 9.38777 9.50393 9.32717 9.28223 9.33496H3.93555ZM27.5801 9.18359C27.4415 9.18089 27.3047 9.21715 27.1855 9.28809C27.0593 9.38876 26.9391 9.49688 26.8262 9.6123L23.8916 13V10.1582C23.8973 10.0771 23.8973 9.99515 23.8916 9.91406C23.8541 9.70469 23.7427 9.51566 23.5781 9.38086C23.3883 9.24265 23.1563 9.17385 22.9219 9.18652C22.6876 9.19929 22.4647 9.29243 22.291 9.4502C22.12 9.64556 22.0292 9.89866 22.0361 10.1582L21.9658 17.0244C21.9544 17.1091 21.9544 17.1956 21.9658 17.2803C22.004 17.4861 22.1156 17.6712 22.2793 17.8018C22.4478 17.9338 22.6571 18.0035 22.8711 17.999C22.999 18.0043 23.1266 17.9833 23.2461 17.9375C23.3656 17.8917 23.4748 17.8218 23.5664 17.7324C23.7374 17.5371 23.8292 17.284 23.8223 17.0244V15.0879L24.8545 14.0088L27.0117 17.4883C27.1011 17.6514 27.2284 17.7909 27.3828 17.8945C27.5255 17.9695 27.6856 18.0056 27.8467 17.999C28.0892 18.0024 28.326 17.9246 28.5195 17.7783C28.6223 17.6909 28.7024 17.5802 28.7529 17.4551C28.8034 17.3299 28.8229 17.1939 28.8096 17.0596V17.002C28.7455 16.8069 28.6517 16.6223 28.5312 16.4561V16.3398L26.2119 12.7441L28.1367 10.6338C28.2216 10.5379 28.2959 10.4326 28.3574 10.3203C28.4177 10.2144 28.4497 10.0946 28.4502 9.97266C28.4446 9.94599 28.4446 9.91828 28.4502 9.8916C28.4549 9.86864 28.4549 9.84425 28.4502 9.82129C28.4337 9.72776 28.3984 9.63823 28.3467 9.55859C28.2949 9.47895 28.2272 9.41049 28.1484 9.35742C27.9811 9.24307 27.7828 9.18249 27.5801 9.18359ZM16.7783 9.18457C16.6519 9.17872 16.5251 9.19917 16.4072 9.24512C16.2895 9.29104 16.1828 9.36144 16.0938 9.45117C15.9185 9.64403 15.8271 9.89888 15.8389 10.1592L15.873 16.7588C15.8646 16.8862 15.8646 17.0142 15.873 17.1416C15.9085 17.3729 16.0333 17.5815 16.2207 17.7217C16.4304 17.8582 16.679 17.9233 16.9287 17.9072H20.8496C21.0991 17.9105 21.3428 17.8328 21.5449 17.6865C21.6364 17.6158 21.7094 17.5239 21.7578 17.4189C21.8063 17.3139 21.8288 17.1985 21.8232 17.083V16.9092C21.8055 16.8117 21.7678 16.7186 21.7119 16.6367C21.656 16.5549 21.5834 16.4856 21.499 16.4336C21.3111 16.3171 21.0932 16.2569 20.8721 16.2598H17.6826V10.1592C17.694 10.0784 17.694 9.99583 17.6826 9.91504C17.6491 9.70689 17.5419 9.51787 17.3809 9.38184C17.2071 9.25154 16.9955 9.18212 16.7783 9.18457ZM12.998 14.7871H10.8057L11.9072 11.3076L12.998 14.7871Z" fill="black"/>
</svg>
