<svg width="36" height="32" viewBox="0 0 36 32" fill="none" xmlns="http://www.w3.org/2000/svg">
<path d="M25.2809 3.96845C22.4837 1.40935 18.7609 0 14.7997 0C10.8385 0 7.11632 1.40935 4.31854 3.96845C1.53345 6.51599 0 9.89953 0 13.4954C0 16.2847 0.926155 18.9618 2.6777 21.2377L2.77957 21.3695L2.74158 21.5341C2.39357 23.0592 2.14528 24.6194 2.00374 26.1709C1.99495 26.2694 2.04947 26.3293 2.07367 26.3506C2.1034 26.3765 2.16506 26.4162 2.25262 26.392L7.10637 25.0258L7.22092 25.088C9.50547 26.3333 12.1265 26.9913 14.7997 26.9913C18.7609 26.9913 22.4837 25.582 25.2809 23.0229C28.066 20.4747 29.6 17.0912 29.6 13.4953C29.6 9.89934 28.0659 6.51605 25.2809 3.96845ZM14.7997 15.1276C13.939 15.1276 13.2387 14.3953 13.2387 13.4955C13.2387 12.5956 13.939 11.8633 14.7997 11.8633C15.6603 11.8633 16.3607 12.5956 16.3607 13.4955C16.3607 14.3953 15.6603 15.1276 14.7997 15.1276ZM7.68673 15.1276C6.82608 15.1276 6.12571 14.3953 6.12571 13.4955C6.12571 12.5956 6.82608 11.8633 7.68673 11.8633C8.54738 11.8633 9.24776 12.5956 9.24776 13.4955C9.24776 14.3953 8.54732 15.1276 7.68673 15.1276ZM21.9127 15.1276C21.0521 15.1276 20.3517 14.3953 20.3517 13.4955C20.3517 12.5956 21.0521 11.8633 21.9127 11.8633C22.7733 11.8633 23.4737 12.5956 23.4737 13.4955C23.4737 14.3953 22.7733 15.1276 21.9127 15.1276Z" fill="#16181C"/>
<path d="M34.191 28.433L34.2923 28.3005C35.4095 26.8415 36 25.1256 36 23.3384C36 19.8024 33.6362 16.6189 30.0773 15.3043C29.6446 18.4032 28.1237 21.2655 25.6859 23.5077C23.5801 25.4446 20.972 26.7493 18.1333 27.3206C19.7529 30.177 22.9973 32 26.5371 32C28.2486 32 29.9262 31.5762 31.3885 30.7747L31.5018 30.7126L34.6866 31.6137C34.6904 31.6149 34.6937 31.616 34.6986 31.6114C34.7041 31.6062 34.7041 31.601 34.7035 31.5976C34.6121 30.5922 34.4522 29.5829 34.2287 28.5977L34.191 28.433Z" fill="#16181C"/>
</svg>
