<svg width="36" height="27" viewBox="0 0 36 27" fill="none" xmlns="http://www.w3.org/2000/svg">
<path fill-rule="evenodd" clip-rule="evenodd" d="M17.9995 0C24.1131 0 29.3721 3.09646 31.7129 7.53846C34.1466 7.95875 35.9999 10.1161 36 12.7152C36 15.3141 34.1471 17.4702 31.7139 17.891C29.3738 22.3341 24.1142 25.4315 17.9995 25.4315C16.3327 25.4315 14.7296 25.2012 13.2315 24.7764L9.12434 26.9134C8.56058 27.2063 7.91046 26.7123 8.03654 26.0867L8.71797 22.71C6.81488 21.44 5.28425 19.788 4.28505 17.891C1.85243 17.4697 0 15.3136 0 12.7152C8.05646e-05 10.1169 1.8524 7.95968 4.28505 7.53846C6.62576 3.09627 11.8858 7.08163e-05 17.9995 0ZM16.3161 14.8097C15.9878 14.8097 15.7215 15.0775 15.7215 15.4076C15.7216 16.6729 16.7414 17.6983 17.9995 17.6986C19.2578 17.6986 20.2784 16.6731 20.2785 15.4076C20.2785 15.0775 20.0122 14.8097 19.6839 14.8097H16.3161ZM3.71633 8.79574C2.16936 9.38966 1.05892 10.9125 1.05885 12.7152C1.05885 14.517 2.16868 16.0371 3.71426 16.6316C3.24338 15.3982 2.98842 14.0825 2.98837 12.7163C2.98837 11.3481 3.24425 10.0307 3.71633 8.79574ZM32.2816 8.79574C32.7538 10.0308 33.0106 11.348 33.0106 12.7163C33.0106 14.0826 32.7546 15.3981 32.2837 16.6316C33.8303 16.0376 34.9411 14.5178 34.9411 12.7152C34.9411 10.9117 33.8296 9.3891 32.2816 8.79574ZM11.5605 8.76142C10.5578 8.76165 9.74499 9.57914 9.74477 10.5875V13.3558C9.7449 14.3644 10.5577 15.1817 11.5605 15.182C12.5635 15.182 13.3772 14.3645 13.3773 13.3558V10.5875C13.3771 9.57894 12.5634 8.76142 11.5605 8.76142ZM24.4405 8.76142C23.4378 8.76165 22.625 9.57914 22.6247 10.5875V13.3558C22.6249 14.3644 23.4378 15.1817 24.4405 15.182C25.4434 15.182 26.2571 14.3645 26.2573 13.3558V10.5875C26.2571 9.57894 25.4434 8.76142 24.4405 8.76142Z" fill="black"/>
</svg>
