<svg width="40" height="40" viewBox="0 0 40 40" fill="none" xmlns="http://www.w3.org/2000/svg">
<path d="M20.6162 9.01758C27.522 9.01758 33.1249 13.4698 33.125 18.8945C33.125 24.3193 27.5397 28.7803 20.6338 28.7803C19.8788 28.7766 19.1249 28.7233 18.377 28.6201L13.3086 32.0371C13.2485 32.0887 13.1737 32.1206 13.0947 32.127C12.9994 32.1267 12.9074 32.0914 12.8359 32.0283C12.7871 31.9791 12.7531 31.9172 12.7373 31.8496C12.7215 31.7818 12.7249 31.7105 12.7471 31.6445L13.9248 27.2461C10.4451 25.4884 8.125 22.4099 8.125 18.8945C8.12514 13.4788 13.7015 9.0176 20.6162 9.01758ZM17.0977 15.9512C16.942 15.9442 16.787 15.9808 16.6514 16.0576C16.524 16.1406 16.4318 16.2682 16.3926 16.415L14.501 21.5449C14.4653 21.643 14.4024 21.7505 14.4023 21.8486C14.387 21.9371 14.3871 22.0277 14.4023 22.1162C14.3976 22.1665 14.3977 22.2173 14.4023 22.2676C14.4285 22.4155 14.5084 22.5491 14.626 22.6426C14.7466 22.7331 14.8941 22.7803 15.0449 22.7764C15.1842 22.7939 15.3256 22.7623 15.4443 22.6875C15.563 22.6127 15.652 22.4993 15.6963 22.3662L16.0713 21.2686H18.418L18.793 22.3662C18.8384 22.4968 18.9265 22.6082 19.043 22.6826C19.1594 22.7569 19.2971 22.79 19.4346 22.7764C19.5241 22.7785 19.6134 22.7623 19.6963 22.7285C19.7792 22.6947 19.8545 22.6441 19.917 22.5801C19.9814 22.5217 20.0325 22.4501 20.0664 22.3701C20.1003 22.29 20.1163 22.2032 20.1133 22.1162C20.1163 22.0599 20.1163 22.0035 20.1133 21.9473C20.0823 21.8113 20.0433 21.6764 19.9971 21.5449L18.2129 16.5039C18.1702 16.3254 18.0615 16.1698 17.9092 16.0674C17.7654 15.9857 17.6018 15.9453 17.4365 15.9512H17.0977ZM11.1523 16.0664C10.9603 16.0638 10.7727 16.1237 10.6172 16.2363C10.5468 16.2907 10.4904 16.3616 10.4531 16.4424C10.416 16.5231 10.3981 16.6115 10.4023 16.7002C10.398 16.7476 10.398 16.7953 10.4023 16.8428C10.4165 16.9176 10.4463 16.9889 10.4893 17.0518C10.5322 17.1147 10.5878 17.1685 10.6523 17.209C10.7978 17.2955 10.9656 17.3389 11.1348 17.334H12.5L12.5088 22.0264C12.5 22.0914 12.5 22.1576 12.5088 22.2227C12.5381 22.3811 12.623 22.5245 12.749 22.625C12.8813 22.7277 13.0455 22.781 13.2129 22.7764C13.3087 22.7802 13.405 22.7639 13.4941 22.7285C13.583 22.6932 13.6634 22.6395 13.7305 22.5713C13.8005 22.4997 13.8553 22.414 13.8906 22.3203C13.9171 22.25 13.9328 22.1763 13.9365 22.1016V17.334H15.2568C15.4455 17.3426 15.6315 17.2853 15.7832 17.1729C15.8536 17.1166 15.9101 17.044 15.9473 16.9619C15.9843 16.8799 16.0013 16.7901 15.9971 16.7002C16.0014 16.6557 16.0014 16.6109 15.9971 16.5664C15.9851 16.4907 15.9563 16.4187 15.9131 16.3555C15.8699 16.2922 15.8132 16.2389 15.7471 16.2002C15.6042 16.1073 15.436 16.0604 15.2656 16.0664H11.1523ZM29.3408 15.9502C29.2342 15.9481 29.1287 15.9758 29.0371 16.0303C28.9399 16.1077 28.8477 16.1915 28.7607 16.2803L26.5029 18.8857V16.5127C26.4741 16.3516 26.3893 16.2053 26.2627 16.1016C26.1167 15.9952 25.9381 15.9425 25.7578 15.9521C25.5774 15.9619 25.4052 16.0338 25.2715 16.1553C25.14 16.3055 25.0699 16.5006 25.0752 16.7002L25.0225 21.9814C25.0137 22.0465 25.0137 22.1127 25.0225 22.1777C25.0518 22.3362 25.1367 22.4796 25.2627 22.5801C25.3923 22.6815 25.5532 22.7348 25.7178 22.7314C25.8163 22.7356 25.9148 22.7189 26.0068 22.6836C26.0987 22.6484 26.1825 22.5951 26.2529 22.5264C26.3845 22.3761 26.4546 22.1811 26.4492 21.9814V20.4922L27.2441 19.6621L28.9033 22.3389C28.9721 22.4643 29.0697 22.5717 29.1885 22.6514C29.2983 22.7091 29.4219 22.7366 29.5459 22.7314C29.7324 22.734 29.9147 22.674 30.0635 22.5615C30.1425 22.4943 30.2044 22.4087 30.2432 22.3125C30.2819 22.2163 30.2964 22.112 30.2861 22.0088V21.9639C30.2369 21.814 30.1648 21.6727 30.0723 21.5449V21.4551L28.2881 18.6895L29.7686 17.0654C29.8338 16.9918 29.8912 16.9115 29.9385 16.8252C29.985 16.7436 30.0095 16.6505 30.0098 16.5566V16.4414C29.9971 16.3694 29.9695 16.3006 29.9297 16.2393C29.8898 16.1779 29.838 16.1248 29.7773 16.084C29.6488 15.9962 29.4965 15.9494 29.3408 15.9502ZM21.0312 15.9512C20.934 15.9467 20.8368 15.9627 20.7461 15.998C20.6555 16.0334 20.5734 16.0872 20.5049 16.1562C20.3702 16.3045 20.2996 16.5001 20.3086 16.7002L20.335 21.7773C20.3284 21.8752 20.3285 21.9734 20.335 22.0713C20.3622 22.2492 20.4585 22.4097 20.6025 22.5176C20.7638 22.6226 20.9554 22.6725 21.1475 22.6602H24.1631C24.355 22.6627 24.5428 22.6038 24.6982 22.4912C24.7686 22.4368 24.825 22.3659 24.8623 22.2852C24.8995 22.2045 24.9163 22.1161 24.9121 22.0273V21.8936C24.8984 21.8185 24.8692 21.7466 24.8262 21.6836C24.7831 21.6206 24.727 21.5674 24.6621 21.5273C24.5176 21.4378 24.3506 21.3913 24.1807 21.3936H21.7266V16.7002C21.7353 16.6381 21.7353 16.5748 21.7266 16.5127C21.7007 16.3527 21.6189 16.2071 21.4951 16.1025C21.3614 16.0023 21.1983 15.9493 21.0312 15.9512ZM18.123 20.2607H16.4375L17.2852 17.584L18.123 20.2607Z" fill="black"/>
</svg>
