<svg width="40" height="40" viewBox="0 0 40 40" fill="none" xmlns="http://www.w3.org/2000/svg">
<g clip-path="url(#clip0_1_13091)">
<path d="M32 20.0731C32 13.4046 26.6281 8 20 8C13.3719 8 8 13.4046 8 20.0731C8 26.1002 12.3875 31.0945 18.125 32V23.563H15.0781V20.0731H18.125V17.4132C18.125 14.3879 19.9156 12.7161 22.6578 12.7161C23.9703 12.7161 25.3438 12.9519 25.3438 12.9519V15.923H23.8297C22.3391 15.923 21.875 16.8544 21.875 17.8094V20.0731H25.2031L24.6711 23.563H21.875V32C27.6125 31.0945 32 26.1002 32 20.0731Z" fill="black"/>
</g>
<defs>
<clipPath id="clip0_1_13091">
<rect width="24" height="24" fill="white" transform="translate(8 8)"/>
</clipPath>
</defs>
</svg>
