<svg width="40" height="40" viewBox="0 0 40 40" fill="none" xmlns="http://www.w3.org/2000/svg">
<path d="M32.1266 14.7235C31.8399 13.6484 30.9978 12.8063 29.9406 12.5196C28.0055 12 20.283 12 20.283 12C20.283 12 12.5427 12 10.6255 12.5196C9.56834 12.8063 8.72621 13.6484 8.43953 14.7235C7.91992 16.6586 7.91992 20.7079 7.91992 20.7079C7.91992 20.7079 7.91992 24.7573 8.43953 26.6924C8.72621 27.7675 9.56834 28.6096 10.6255 28.8963C12.5606 29.4159 20.283 29.4159 20.283 29.4159C20.283 29.4159 28.0234 29.4159 29.9406 28.8963C30.9978 28.6096 31.8399 27.7675 32.1266 26.6924C32.6462 24.7573 32.6462 20.7079 32.6462 20.7079C32.6462 20.7079 32.6462 16.6586 32.1266 14.7235ZM17.7567 24.3811V17.0348L24.2249 20.7079L17.7567 24.3811Z" fill="black"/>
</svg>
