<svg width="40" height="40" viewBox="0 0 40 40" fill="none" xmlns="http://www.w3.org/2000/svg">
<g clip-path="url(#clip0_1_13090)">
<path d="M20 10.1628C23.206 10.1628 23.5824 10.1771 24.8496 10.2342C26.0215 10.2866 26.655 10.4819 27.079 10.6487C27.6411 10.8678 28.0413 11.125 28.4605 11.5443C28.8797 11.9635 29.1417 12.3636 29.3561 12.9258C29.5181 13.3497 29.7182 13.9833 29.7706 15.1552C29.8277 16.4224 29.842 16.7987 29.842 20.0048C29.842 23.2108 29.8277 23.5871 29.7706 24.8543C29.7182 26.0262 29.5228 26.6598 29.3561 27.0838C29.137 27.6459 28.8797 28.0461 28.4605 28.4653C28.0413 28.8845 27.6411 29.1465 27.079 29.3609C26.655 29.5228 26.0215 29.7229 24.8496 29.7753C23.5824 29.8325 23.206 29.8468 20 29.8468C16.794 29.8468 16.4176 29.8325 15.1505 29.7753C13.9786 29.7229 13.345 29.5276 12.921 29.3609C12.3589 29.1417 11.9587 28.8845 11.5395 28.4653C11.1203 28.0461 10.8583 27.6459 10.6439 27.0838C10.4819 26.6598 10.2819 26.0262 10.2295 24.8543C10.1723 23.5871 10.158 23.2108 10.158 20.0048C10.158 16.7987 10.1723 16.4224 10.2295 15.1552C10.2819 13.9833 10.4772 13.3497 10.6439 12.9258C10.863 12.3636 11.1203 11.9635 11.5395 11.5443C11.9587 11.125 12.3589 10.863 12.921 10.6487C13.345 10.4867 13.9786 10.2866 15.1505 10.2342C16.4176 10.1723 16.7987 10.1628 20 10.1628ZM20 8C16.7416 8 16.3319 8.01429 15.0504 8.07146C13.7737 8.12862 12.902 8.33347 12.1397 8.62882C11.349 8.9337 10.682 9.34815 10.0151 10.0151C9.34816 10.682 8.93847 11.3537 8.62882 12.1397C8.33347 12.9019 8.12862 13.7737 8.07146 15.0552C8.01429 16.3319 8 16.7416 8 20C8 23.2584 8.01429 23.6681 8.07146 24.9496C8.12862 26.2263 8.33347 27.0981 8.62882 27.865C8.9337 28.6558 9.34816 29.3227 10.0151 29.9897C10.682 30.6566 11.3537 31.0663 12.1397 31.3759C12.902 31.6713 13.7737 31.8761 15.0552 31.9333C16.3366 31.9905 16.7416 32.0048 20.0048 32.0048C23.268 32.0048 23.6729 31.9905 24.9544 31.9333C26.2311 31.8761 27.1028 31.6713 27.8698 31.3759C28.6606 31.0711 29.3275 30.6566 29.9945 29.9897C30.6614 29.3227 31.0711 28.6511 31.3807 27.865C31.6761 27.1028 31.8809 26.231 31.9381 24.9496C31.9953 23.6681 32.0096 23.2632 32.0096 20C32.0096 16.7368 31.9953 16.3319 31.9381 15.0504C31.8809 13.7737 31.6761 12.9019 31.3807 12.135C31.0758 11.3442 30.6614 10.6773 29.9945 10.0103C29.3275 9.34339 28.6558 8.9337 27.8698 8.62406C27.1076 8.3287 26.2358 8.12386 24.9544 8.06669C23.6681 8.01429 23.2585 8 20 8Z" fill="black"/>
<path d="M20.0003 13.8398C16.5989 13.8398 13.8359 16.5981 13.8359 20.0042C13.8359 23.4103 16.5942 26.1685 20.0003 26.1685C23.4064 26.1685 26.1646 23.4103 26.1646 20.0042C26.1646 16.5981 23.4064 13.8398 20.0003 13.8398ZM20.0003 24.001C17.7899 24.001 15.9987 22.2098 15.9987 19.9994C15.9987 17.789 17.7899 15.9978 20.0003 15.9978C22.2107 15.9978 24.0019 17.789 24.0019 19.9994C24.0019 22.2098 22.2107 24.001 20.0003 24.001Z" fill="black"/>
<path d="M26.4074 15.0316C27.202 15.0316 27.8461 14.3875 27.8461 13.593C27.8461 12.7984 27.202 12.1543 26.4074 12.1543C25.6129 12.1543 24.9688 12.7984 24.9688 13.593C24.9688 14.3875 25.6129 15.0316 26.4074 15.0316Z" fill="black"/>
</g>
<defs>
<clipPath id="clip0_1_13090">
<rect width="24" height="24" fill="white" transform="translate(8 8)"/>
</clipPath>
</defs>
</svg>
